<svg width="157" height="41" viewBox="0 0 157 41" fill="none" xmlns="http://www.w3.org/2000/svg">
<g clip-path="url(#clip0_1_120)">
<path d="M50.2178 31.7382L52.1671 27.2342C54.2736 28.7981 57.0717 29.6114 59.8386 29.6114C61.8823 29.6114 63.1714 28.8294 63.1714 27.6411C63.14 24.3257 50.9408 26.9215 50.8465 18.6019C50.8151 14.3797 54.5883 11.1269 59.933 11.1269C63.1086 11.1269 66.2842 11.9087 68.5478 13.6914L66.7243 18.2892C64.6492 16.9755 62.0712 16.0374 59.6186 16.0374C57.9522 16.0374 56.852 16.8191 56.852 17.8201C56.8834 21.0729 69.1769 19.2902 69.3026 27.2342C69.3026 31.5505 65.624 34.5844 60.3419 34.5844C56.4744 34.5844 52.9216 33.6773 50.2178 31.7382ZM125.016 25.6078L130.393 28.5792C128.381 32.176 124.545 34.5844 120.111 34.5844C113.603 34.5844 108.321 29.33 108.321 22.8557C108.321 16.3813 113.603 11.1269 120.111 11.1269C124.513 11.1269 128.381 13.5663 130.393 17.1321L125.016 20.1032C124.041 18.4143 122.218 17.2572 120.111 17.2572C116.999 17.2572 114.484 19.7592 114.484 22.8557C114.484 25.9521 116.999 28.4541 120.111 28.4541C122.218 28.4541 124.041 27.2968 125.016 25.6078H125.016ZM72.0064 1.39975H78.7348V34.1464H72.0064V1.39975ZM133.034 1.39975H139.762V20.6348L147.371 11.5959H155.608L146.208 22.4801L156.363 34.1464H147.748L139.762 24.3257V34.1464H133.034V1.39975ZM98.7315 25.6707V20.1345C97.7567 18.5081 95.7445 17.2572 93.4809 17.2572C90.3678 17.2572 87.853 19.7592 87.853 22.8557C87.853 25.9521 90.3678 28.4541 93.4809 28.4541C95.7445 28.4541 97.7567 27.2655 98.7315 25.6704V25.6707ZM98.7315 11.5962H105.46V34.1154H98.7315V31.457C97.631 33.3023 94.8955 34.5848 92.0345 34.5848C86.1234 34.5848 81.4703 29.3303 81.4703 22.8247C81.4703 16.3191 86.1234 11.1272 92.0345 11.1272C94.8955 11.1272 97.631 12.4096 98.7315 14.2549V11.5956V11.5962Z" fill="#037B35"/>
<path d="M8.62109 25.6388C8.62109 27.9219 6.76608 29.7675 4.47067 29.7675C3.92549 29.768 3.38557 29.6616 2.8818 29.4543C2.37803 29.247 1.9203 28.9429 1.53482 28.5594C1.14934 28.1759 0.843673 27.7206 0.635313 27.2194C0.426953 26.7183 0.319993 26.1811 0.320555 25.6388C0.320555 23.3557 2.17556 21.5104 4.47067 21.5104H8.62109V25.6388ZM10.6961 25.6388C10.6961 23.3557 12.5511 21.5104 14.8463 21.5104C17.1414 21.5104 18.9967 23.3557 18.9967 25.6388V35.9601C18.9967 38.2432 17.1417 40.0888 14.8463 40.0888C14.3011 40.0893 13.7612 39.9828 13.2575 39.7755C12.7537 39.5682 12.2961 39.2641 11.9106 38.8806C11.5252 38.4971 11.2195 38.0417 11.0112 37.5406C10.8028 37.0395 10.6959 36.5024 10.6964 35.9601V25.6388H10.6961Z" fill="#037B35"/>
<path d="M14.8459 9.06269C14.3008 9.06317 13.7609 8.9567 13.2571 8.74937C12.7534 8.54205 12.2957 8.23794 11.9103 7.85445C11.5248 7.47097 11.2192 7.01563 11.0108 6.5145C10.8025 6.01337 10.6955 5.47629 10.6961 4.93399C10.6958 2.6509 12.5508 0.805603 14.8459 0.805603C17.141 0.805603 18.9963 2.6509 18.9963 4.93399V9.06269H14.8459ZM14.8459 11.1582C17.141 11.1582 18.9963 13.0035 18.9963 15.2865C18.9963 17.5696 17.1413 19.4152 14.8459 19.4152H4.43888C3.89371 19.4158 3.35378 19.3093 2.85001 19.102C2.34624 18.8947 1.88852 18.5906 1.50303 18.2071C1.11755 17.8236 0.811885 17.3683 0.603525 16.8671C0.395165 16.366 0.288205 15.8289 0.288767 15.2865C0.288767 13.0035 2.14377 11.1585 4.43888 11.1585H14.8462L14.8459 11.1582Z" fill="#037B35"/>
<path d="M31.4793 15.2865C31.4793 13.0035 33.3343 11.1582 35.6294 11.1582C37.9245 11.1582 39.7798 13.0035 39.7798 15.2865C39.7798 17.5696 37.9248 19.4152 35.6294 19.4152H31.4793V15.2865ZM29.4039 15.2865C29.4039 17.5696 27.5492 19.4152 25.2538 19.4152C24.7086 19.4158 24.1687 19.3093 23.6649 19.102C23.1612 18.8947 22.7034 18.5906 22.3179 18.2071C21.9325 17.8236 21.6268 17.3683 21.4184 16.8671C21.2101 16.366 21.1031 15.8289 21.1037 15.2865V4.93399C21.1037 2.6509 22.9587 0.805603 25.2538 0.805603C27.5489 0.805603 29.4042 2.6509 29.4042 4.93399V15.2869L29.4039 15.2865Z" fill="#037B35"/>
<path d="M25.2538 31.8317C27.5489 31.8317 29.4042 33.677 29.4042 35.9601C29.4042 38.2432 27.5492 40.0888 25.2538 40.0888C24.7086 40.0893 24.1687 39.9829 23.6649 39.7756C23.1612 39.5683 22.7034 39.2642 22.3179 38.8807C21.9325 38.4972 21.6268 38.0418 21.4184 37.5407C21.2101 37.0395 21.1031 36.5024 21.1037 35.9601V31.8317H25.2538ZM25.2538 29.7672C24.7086 29.7677 24.1687 29.6613 23.665 29.454C23.1612 29.2467 22.7035 28.9427 22.3181 28.5592C21.9326 28.1757 21.6269 27.7204 21.4185 27.2193C21.2101 26.7182 21.1032 26.1811 21.1037 25.6388C21.1037 23.3557 22.9587 21.5104 25.2538 21.5104H35.6611C37.9562 21.5104 39.8112 23.3557 39.8112 25.6388C39.8112 27.9219 37.9562 29.7675 35.6608 29.7675H25.2538V29.7672Z" fill="#037B35"/>
</g>
<defs>
<clipPath id="clip0_1_120">
<rect width="156.263" height="39.4684" fill="white" transform="translate(0.288422 0.805634)"/>
</clipPath>
</defs>
</svg>
