<svg width="156" height="34" viewBox="0 0 156 34" fill="none" xmlns="http://www.w3.org/2000/svg">
<g clip-path="url(#clip0_1_114)">
<path d="M155.419 15.2315V12.4629H152.025V8.15913L151.911 8.19481L148.723 9.18265L148.66 9.20202V12.4632H143.628V10.6469C143.628 9.80112 143.815 9.15343 144.183 8.72163C144.548 8.29507 145.071 8.07825 145.738 8.07825C146.217 8.07825 146.713 8.19266 147.213 8.4184L147.338 8.47468V5.55914L147.279 5.53731C146.813 5.36754 146.179 5.28204 145.394 5.28204C144.404 5.28204 143.504 5.5004 142.72 5.93281C141.935 6.36583 141.317 6.984 140.885 7.7704C140.454 8.55556 140.235 9.46251 140.235 10.466V12.4632H137.872V15.2318H140.235V26.8948H143.628V15.2315H148.66V22.6433C148.66 25.696 150.082 27.2433 152.885 27.2433C153.345 27.2433 153.83 27.1882 154.326 27.0812C154.83 26.9714 155.173 26.8616 155.375 26.7441L155.419 26.7177V23.9233L155.281 24.0156C155.097 24.1404 154.868 24.2416 154.599 24.317C154.329 24.3939 154.103 24.4326 153.929 24.4326C153.272 24.4326 152.786 24.2533 152.484 23.8996C152.18 23.5429 152.025 22.9186 152.025 22.0451V15.2315H155.419ZM130.295 24.4332C129.063 24.4332 128.093 24.0193 127.408 23.2046C126.72 22.3856 126.371 21.2181 126.371 19.7348C126.371 18.2048 126.72 17.0069 127.408 16.1735C128.093 15.3456 129.055 14.9254 130.267 14.9254C131.444 14.9254 132.38 15.3268 133.051 16.1187C133.725 16.9153 134.067 18.1033 134.067 19.6515C134.067 21.2184 133.745 22.4225 133.111 23.2276C132.481 24.027 131.534 24.4332 130.295 24.4332ZM130.446 12.1154C128.096 12.1154 126.23 12.8126 124.9 14.188C123.57 15.5636 122.896 17.4667 122.896 19.8459C122.896 22.1054 123.554 23.923 124.852 25.247C126.15 26.5719 127.917 27.243 130.102 27.243C132.38 27.243 134.209 26.5356 135.539 25.1415C136.869 23.7483 137.542 21.8631 137.542 19.5396C137.542 17.2446 136.91 15.4135 135.663 14.0981C134.415 12.7825 132.659 12.1154 130.446 12.1154ZM117.426 12.1154C115.827 12.1154 114.506 12.5294 113.495 13.3456C112.479 14.1667 111.964 15.2441 111.964 16.5474C111.964 17.225 112.076 17.8268 112.295 18.3374C112.515 18.8494 112.856 19.3003 113.308 19.6789C113.758 20.0541 114.451 20.4474 115.371 20.8475C116.143 21.1695 116.72 21.442 117.086 21.6567C117.443 21.8671 117.698 22.0787 117.841 22.2847C117.98 22.4862 118.051 22.762 118.051 23.1028C118.051 24.0725 117.334 24.5439 115.859 24.5439C115.312 24.5439 114.688 24.4286 114.005 24.2004C113.326 23.9756 112.685 23.6464 112.105 23.2246L111.964 23.1225V26.431L112.016 26.4556C112.496 26.6802 113.101 26.869 113.814 27.0181C114.527 27.1673 115.174 27.2433 115.736 27.2433C117.47 27.2433 118.867 26.8272 119.885 26.0057C120.911 25.179 121.431 24.0765 121.431 22.7276C121.431 21.7548 121.151 20.9207 120.599 20.2478C120.052 19.5805 119.101 18.9678 117.775 18.4262C116.719 17.9969 116.042 17.6405 115.763 17.3667C115.494 17.1023 115.357 16.7286 115.357 16.2553C115.357 15.8355 115.526 15.4993 115.872 15.2268C116.221 14.9531 116.707 14.8138 117.316 14.8138C117.881 14.8138 118.46 14.9042 119.035 15.0814C119.61 15.2588 120.114 15.4963 120.536 15.7866L120.675 15.8825V12.744L120.621 12.7207C120.233 12.5518 119.72 12.4076 119.097 12.2901C118.477 12.1741 117.915 12.1154 117.426 12.1154ZM103.119 24.4329C101.888 24.4329 100.917 24.0193 100.233 23.2046C99.544 22.3856 99.1957 21.2184 99.1957 19.7348C99.1957 18.2048 99.5443 17.0069 100.233 16.1735C100.917 15.3456 101.879 14.9254 103.092 14.9254C104.268 14.9254 105.204 15.3268 105.875 16.1187C106.549 16.9153 106.891 18.1033 106.891 19.6515C106.891 21.2184 106.57 22.4225 105.935 23.2276C105.305 24.027 104.358 24.4332 103.119 24.4332V24.4329ZM103.271 12.1154C100.921 12.1154 99.0543 12.8126 97.7244 14.188C96.3948 15.5636 95.7204 17.4667 95.7204 19.8459C95.7204 22.1063 96.3787 23.923 97.6767 25.247C98.9747 26.5719 100.741 27.243 102.927 27.243C105.204 27.243 107.033 26.5356 108.363 25.1415C109.693 23.7483 110.367 21.8631 110.367 19.5396C110.367 17.2446 109.734 15.4135 108.487 14.0981C107.238 12.7825 105.483 12.1154 103.27 12.1154H103.271ZM90.57 14.9624V12.4629H87.2183V26.8948H90.5697V19.5125C90.5697 18.2571 90.8509 17.2259 91.4053 16.4469C91.9527 15.6771 92.682 15.2874 93.5729 15.2874C93.8747 15.2874 94.2135 15.3376 94.5806 15.4375C94.9438 15.5365 95.207 15.6442 95.3622 15.7574L95.5027 15.8607V12.4383L95.4487 12.4146C95.1362 12.2802 94.6951 12.2126 94.1361 12.2126C93.2941 12.2126 92.5402 12.4866 91.8947 13.0264C91.3282 13.5006 90.9186 14.151 90.6052 14.9624H90.5697H90.57ZM81.2165 12.1154C79.6789 12.1154 78.3074 12.4494 77.1406 13.1075C75.9716 13.7672 75.0677 14.7095 74.4529 15.9074C73.8405 17.1026 73.5299 18.4982 73.5299 20.055C73.5299 21.4184 73.831 22.6698 74.4268 23.7726C75.0228 24.8773 75.8669 25.7415 76.9347 26.3406C78.0014 26.9394 79.2338 27.2433 80.5986 27.2433C82.1914 27.2433 83.5514 26.9203 84.6417 26.2846L84.6857 26.2588V23.1486L84.5448 23.2529C84.0432 23.6212 83.4908 23.9126 82.9052 24.1177C82.3129 24.3268 81.7727 24.4329 81.2991 24.4329C79.9844 24.4329 78.9286 24.0159 78.162 23.1944C77.3938 22.3714 77.0046 21.2163 77.0046 19.7622C77.0046 18.2992 77.4108 17.1143 78.2112 16.2396C79.0088 15.368 80.0663 14.9258 81.3546 14.9258C82.4562 14.9258 83.5295 15.3034 84.5451 16.0498L84.6857 16.1532V12.8763L84.6402 12.8501C84.2582 12.6336 83.7369 12.4546 83.0895 12.319C82.4456 12.1837 81.8152 12.1154 81.2162 12.1154H81.2165ZM71.2211 12.4629H67.8696V26.8948H71.2214V12.4632L71.2211 12.4629ZM69.5797 6.31509C69.0283 6.31509 68.5473 6.50515 68.1517 6.8822C67.7549 7.26049 67.5536 7.73626 67.5536 8.29784C67.5536 8.8505 67.7524 9.31766 68.1456 9.68548C68.5361 10.0524 69.0186 10.2385 69.5797 10.2385C70.1408 10.2385 70.6251 10.0524 71.0204 9.6861C71.4181 9.31766 71.62 8.8505 71.62 8.29784C71.62 7.75563 71.4236 7.28447 71.0368 6.89727C70.6503 6.511 70.1602 6.31509 69.5797 6.31509ZM61.2178 11.3982V26.8948H64.6378V6.75703H59.9043L53.887 21.7145L48.0477 6.75703H43.121V26.8948H46.3352V11.3967H46.4457L52.6118 26.8945H55.0374L61.107 11.3982H61.2175H61.2178Z" fill="#037B35"/>
<path d="M15.7664 15.9974H0V0.0274963H15.7664V15.9974Z" fill="#037B35"/>
<path d="M33.1742 15.9975H17.4081V0.0275879H33.1742V15.9975Z" fill="#037B35"/>
<path d="M15.7658 33.636H0V17.6664H15.7658V33.636Z" fill="#037B35"/>
<path d="M33.1742 33.636H17.4081V17.6664H33.1742V33.636Z" fill="#037B35"/>
</g>
<defs>
<clipPath id="clip0_1_114">
<rect width="155.457" height="33.83" fill="white" transform="translate(0 0.0275879)"/>
</clipPath>
</defs>
</svg>
