<svg width="128" height="42" viewBox="0 0 128 42" fill="none" xmlns="http://www.w3.org/2000/svg">
<g clip-path="url(#clip0_1_126)">
<path d="M123.164 25.1052L126.672 27.4206C125.534 29.0808 122.81 31.9295 118.102 31.9295C112.255 31.9295 107.901 27.4511 107.901 21.7541C107.901 15.6917 112.301 11.5789 117.61 11.5789C122.949 11.5789 125.564 15.7829 126.411 18.0525L126.872 19.2103L113.117 24.8463C114.163 26.8875 115.794 27.9233 118.102 27.9233C120.41 27.9233 122.01 26.7961 123.164 25.1052ZM112.379 21.4345L121.564 17.6566C121.056 16.3925 119.549 15.4939 117.748 15.4939C115.456 15.4939 112.271 17.5045 112.379 21.4345Z" fill="#037B35"/>
<path d="M101.27 1.20554H105.701V31.0003H101.27V1.20529V1.20554Z" fill="#037B35"/>
<path d="M94.2839 12.3708H98.5613V30.467C98.5613 37.9764 94.0838 41.0686 88.7908 41.0686C83.8057 41.0686 80.8055 37.7481 79.6822 35.052L83.6057 33.4372C84.3133 35.0975 86.0213 37.0627 88.7908 37.0627C92.1911 37.0627 94.2839 34.9757 94.2839 31.0763V29.6141H94.13C93.1144 30.8326 91.1757 31.9292 88.714 31.9292C83.5748 31.9292 78.8664 27.4966 78.8664 21.7846C78.8664 16.0418 83.5748 11.5637 88.714 11.5637C91.1604 11.5637 93.1144 12.6452 94.13 13.8333H94.2839V12.3711V12.3708ZM94.5914 21.7846C94.5914 18.1897 92.1758 15.5696 89.0985 15.5696C85.9904 15.5696 83.3747 18.1897 83.3747 21.7846C83.3747 25.3335 85.9904 27.9079 89.0985 27.9079C92.176 27.9233 94.5916 25.3335 94.5916 21.7846H94.5914Z" fill="#037B35"/>
<path d="M54.5411 21.7084C54.5411 27.573 49.9253 31.8836 44.263 31.8836C38.601 31.8836 33.9849 27.5578 33.9849 21.7084C33.9849 15.8135 38.601 11.5181 44.263 11.5181C49.9253 11.5181 54.5411 15.8135 54.5411 21.7084ZM50.0483 21.7084C50.0483 18.0529 47.3709 15.5392 44.263 15.5392C41.1551 15.5392 38.4777 18.0529 38.4777 21.7084C38.4777 25.3337 41.1551 27.8777 44.263 27.8777C47.3712 27.8777 50.0483 25.3337 50.0483 21.7084Z" fill="#037B35"/>
<path d="M76.9893 21.7541C76.9893 27.6186 72.3733 31.9293 66.7112 31.9293C61.0489 31.9293 56.4331 27.6184 56.4331 21.7541C56.4331 15.8592 61.0489 11.5789 66.7112 11.5789C72.3733 11.5789 76.9893 15.844 76.9893 21.7541ZM72.4809 21.7541C72.4809 18.0985 69.8038 15.5848 66.6956 15.5848C63.5877 15.5848 60.9104 18.0985 60.9104 21.7541C60.9104 25.3793 63.5877 27.9233 66.6956 27.9233C69.8191 27.9233 72.4809 25.3642 72.4809 21.7541Z" fill="#037B35"/>
<path d="M17.0898 27.4664C10.6428 27.4664 5.59628 22.3178 5.59628 15.9353C5.59628 9.5531 10.6428 4.4045 17.0898 4.4045C20.5672 4.4045 23.1058 5.76012 24.9829 7.49669L28.0758 4.43506C25.4601 1.95221 21.9674 0.0630493 17.0898 0.0630493C8.25811 0.0632938 0.82637 7.19227 0.82637 15.9353C0.82637 24.6789 8.25811 31.8076 17.0898 31.8076C21.8597 31.8076 25.4601 30.2539 28.2758 27.3598C31.1683 24.496 32.0607 20.4746 32.0607 17.2149C32.0607 16.1943 31.9377 15.1433 31.7992 14.3665H17.0898V18.6011H27.5679C27.2602 21.2517 26.414 23.0643 25.1677 24.2979C23.6598 25.8061 21.2751 27.4664 17.0898 27.4664Z" fill="#037B35"/>
</g>
<defs>
<clipPath id="clip0_1_126">
<rect width="126.46" height="41.0793" fill="white" transform="translate(0.64238)"/>
</clipPath>
</defs>
</svg>
