<svg width="157" height="36" viewBox="0 0 157 36" fill="none" xmlns="http://www.w3.org/2000/svg">
<g clip-path="url(#clip0_1_133)">
<path d="M91.3674 14.0731H85.2161V14.7208C87.14 14.7208 87.4495 15.13 87.4495 17.5518V21.9177C87.4495 24.3392 87.1404 24.7827 85.2161 24.7827C83.7389 24.5782 82.7418 23.7934 81.3675 22.2927L79.7866 20.5876C81.9168 20.212 83.051 18.8822 83.051 17.3813C83.051 15.5059 81.4365 14.0734 78.4119 14.0734H72.3641V14.7208C74.2881 14.7208 74.5975 15.13 74.5975 17.5518V21.9177C74.5975 24.3392 74.2881 24.7827 72.3641 24.7827V25.4306H79.2021V24.7824C77.2781 24.7824 76.9689 24.3392 76.9689 21.9177V20.69H77.5528L81.3672 25.4306H91.3674C96.2811 25.4306 98.4117 22.8389 98.4117 19.7346C98.4117 16.6309 96.2814 14.0731 91.3674 14.0731ZM76.9692 19.6322V15.0964H78.3777C79.9239 15.0964 80.6115 16.1536 80.6115 17.3816C80.6115 18.5754 79.9239 19.6322 78.3777 19.6322H76.9692ZM91.4705 24.3734H91.2297C89.9931 24.3734 89.8212 24.0666 89.8212 22.4975V15.0964H91.4705C95.0444 15.0964 95.6969 17.6881 95.6969 19.7007C95.6969 21.7811 95.0438 24.3734 91.4705 24.3734ZM53.2244 20.8948L55.5955 13.9365C56.2831 11.9243 55.9736 11.3448 53.7743 11.3448V10.6623H60.2345V11.3448C58.0697 11.3448 57.5545 11.8561 56.6954 14.3461L52.7776 26.0104H52.331L48.8255 15.3345L45.2516 26.0104H44.8048L40.991 14.3461C40.1664 11.8561 39.6164 11.3448 37.6231 11.3448V10.6623H45.2519V11.3448C43.2245 11.3448 42.6742 11.8222 43.3963 13.9365L45.6984 20.8945L49.1692 10.6623H49.8223L53.2244 20.8948ZM64.9074 25.8738C61.1275 25.8738 58.0349 23.1112 58.0349 19.7343C58.0349 16.3923 61.1278 13.6291 64.9074 13.6291C68.6876 13.6291 71.7799 16.3923 71.7799 19.7343C71.7799 23.1112 68.6876 25.8738 64.9074 25.8738ZM64.9074 14.6871C61.7462 14.6871 60.6465 17.5176 60.6465 19.7346C60.6465 21.9862 61.7462 24.7827 64.9074 24.7827C68.1035 24.7827 69.2031 21.9862 69.2031 19.7346C69.2031 17.5176 68.1035 14.6871 64.9074 14.6871Z" fill="#037B35"/>
<path d="M106.898 24.7485V25.4307H99.0292V24.7485C101.332 24.7485 101.744 24.1688 101.744 20.7576V15.3012C101.744 11.8898 101.332 11.3446 99.0292 11.3446V10.6621H106.142C109.682 10.6621 111.641 12.4699 111.641 14.8917C111.641 17.2453 109.682 19.0868 106.142 19.0868H104.184V20.7573C104.184 24.1688 104.596 24.7485 106.898 24.7485ZM106.142 11.8898H104.184V17.8248H106.142C108.067 17.8248 108.96 16.4947 108.96 14.8917C108.96 13.2548 108.067 11.8898 106.142 11.8898ZM135.248 22.2247L135.076 22.8387C134.767 23.964 134.389 24.3735 131.949 24.3735H131.468C129.681 24.3735 129.372 23.964 129.372 21.5428V19.9737C132.052 19.9737 132.259 20.2124 132.259 21.9863H132.912V16.9037H132.258C132.258 18.6772 132.052 18.9159 129.372 18.9159V15.0962H131.261C133.702 15.0962 134.079 15.5057 134.389 16.631L134.561 17.2787H135.11L134.87 14.0729H124.767V14.7206C126.691 14.7206 127.001 15.1298 127.001 17.5516V21.9175C127.001 24.1327 126.738 24.6907 125.221 24.7703C123.779 24.5516 122.789 23.771 121.434 22.2925L119.853 20.5874C121.984 20.2118 123.118 18.882 123.118 17.3811C123.118 15.5057 121.503 14.0732 118.479 14.0732H112.431V14.7206C114.355 14.7206 114.665 15.1298 114.665 17.5516V21.9175C114.665 24.339 114.356 24.7825 112.431 24.7825V25.4304H119.27V24.7822C117.346 24.7822 117.036 24.339 117.036 21.9175V20.6901H117.62L121.435 25.4307H135.558L135.764 22.225H135.248V22.2247ZM117.036 19.6323V15.0965H118.444C119.991 15.0965 120.679 16.1536 120.679 17.3817C120.679 18.5754 119.991 19.6323 118.444 19.6323H117.036ZM142.224 25.8739C140.849 25.8739 139.646 25.1578 139.131 24.714C138.959 24.8848 138.65 25.3965 138.582 25.8739H137.928V21.1675H138.616C138.891 23.4181 140.471 24.7485 142.499 24.7485C143.598 24.7485 144.492 24.1348 144.492 23.1116C144.492 22.225 143.702 21.5425 142.293 20.8949L140.334 19.974C138.959 19.3255 137.928 18.1998 137.928 16.6995C137.928 15.0625 139.475 13.6643 141.606 13.6643C142.74 13.6643 143.701 14.0735 144.286 14.5509C144.458 14.4146 144.629 14.039 144.733 13.6295H145.386V17.6549H144.664C144.423 16.0516 143.53 14.7215 141.709 14.7215C140.747 14.7215 139.853 15.2673 139.853 16.1203C139.853 17.007 140.575 17.484 142.224 18.2347L144.114 19.1555C145.764 19.9398 146.416 21.2023 146.416 22.2253C146.416 24.3738 144.526 25.8742 142.224 25.8742V25.8739ZM152.808 25.8739C151.433 25.8739 150.23 25.1578 149.715 24.714C149.543 24.8848 149.234 25.3965 149.166 25.8739H148.513V21.1675H149.2C149.474 23.4181 151.055 24.7485 153.083 24.7485C154.182 24.7485 155.076 24.1348 155.076 23.1116C155.076 22.225 154.285 21.5425 152.876 20.8949L150.917 19.974C149.543 19.3255 148.512 18.1998 148.512 16.6995C148.512 15.0625 150.058 13.6643 152.189 13.6643C153.323 13.6643 154.285 14.0735 154.87 14.5509C155.041 14.4146 155.213 14.039 155.316 13.6295H155.969V17.6549H155.247C155.007 16.0516 154.113 14.7215 152.292 14.7215C151.33 14.7215 150.436 15.2673 150.436 16.1203C150.436 17.007 151.158 17.484 152.808 18.2347L154.697 19.1555C156.347 19.9398 157 21.2023 157 22.2253C157 24.3738 155.11 25.8742 152.808 25.8742V25.8739Z" fill="#037B35"/>
<path d="M3.25774 17.8161C3.25774 23.7908 6.75625 28.9537 11.829 31.4006L4.57437 11.6733C3.70471 13.6062 3.25605 15.6995 3.25774 17.8164V17.8161ZM28.7322 17.0546C28.7322 15.1892 28.0571 13.8973 27.4778 12.8916C26.7069 11.6485 25.9845 10.5955 25.9845 9.35237C25.9845 7.96472 27.0447 6.67309 28.5381 6.67309C28.6055 6.67309 28.6693 6.68157 28.7352 6.68521C26.0296 4.22494 22.4249 2.72309 18.4656 2.72309C13.1526 2.72309 8.47849 5.42842 5.75916 9.52655C6.11624 9.53684 6.45227 9.54442 6.73794 9.54442C8.32864 9.54442 10.791 9.35267 10.791 9.35267C11.6108 9.30481 11.7072 10.4998 10.8887 10.5961C10.8887 10.5961 10.0646 10.6925 9.1478 10.74L14.686 27.0892L18.0139 17.1827L15.6446 10.7397C14.8257 10.6919 14.0499 10.5955 14.0499 10.5955C13.2302 10.548 13.3266 9.30421 14.1458 9.35237C14.1458 9.35237 16.6576 9.54381 18.1518 9.54381C19.7419 9.54381 22.2049 9.35237 22.2049 9.35237C23.0249 9.30421 23.1214 10.4992 22.3022 10.5955C22.3022 10.5955 21.4767 10.6919 20.5617 10.7394L26.0574 26.965L27.5743 21.9336C28.2317 19.8462 28.7322 18.3468 28.7322 17.0546ZM18.7323 19.1365L14.1696 32.296C15.5646 32.7038 17.0113 32.9109 18.4656 32.9109C20.1856 32.9115 21.8933 32.6221 23.5157 32.0552C23.4736 31.9892 23.4374 31.9197 23.4077 31.8474L18.7323 19.1365ZM31.8098 10.5746C31.8751 11.0554 31.9124 11.5712 31.9124 12.1268C31.9124 13.6583 31.624 15.3801 30.7557 17.5329L26.1105 30.8632C30.6318 28.2464 33.6728 23.3849 33.6728 17.8167C33.6731 15.1923 32.9977 12.7247 31.8098 10.5746ZM18.4656 0.221924C8.69091 0.221924 0.738007 8.11466 0.738007 17.8161C0.738007 27.5191 8.69091 35.4115 18.4656 35.4115C28.2402 35.4115 36.194 27.5191 36.194 17.8161C36.194 8.11466 28.2402 0.221924 18.4656 0.221924ZM18.4656 34.6048C9.13925 34.6048 1.55075 27.0735 1.55075 17.8161C1.55075 8.55964 9.13895 1.02858 18.4656 1.02858C27.7919 1.02858 35.3798 8.55964 35.3798 17.8161C35.3798 27.0735 27.7919 34.6048 18.4656 34.6048Z" fill="#037B35"/>
</g>
<defs>
<clipPath id="clip0_1_133">
<rect width="156.263" height="35.441" fill="white" transform="translate(0.737671 0.221924)"/>
</clipPath>
</defs>
</svg>
